<?xml version="1.0" encoding="utf-8"?>
<!-- Generator: Adobe Illustrator 22.0.0, SVG Export Plug-In . SVG Version: 6.00 Build 0)  -->
<svg version="1.1" id="Layer_1" xmlns="http://www.w3.org/2000/svg" xmlns:xlink="http://www.w3.org/1999/xlink" x="0px" y="0px"
	 viewBox="0 0 512 512" style="enable-background:new 0 0 512 512;" xml:space="preserve">
<path d="M229.7,276.7V56h-16h-48h-16v300.7L90.3,416h59.3v24v16h80v-16v-24h192V84.7L229.7,276.7z M149.7,400H129l20.3-20.3l0.4,0.4
	V400z M213.7,292.7v22.6V331v7v22.7v7.3v32v16v24h-48v-16h20v-8v-8h-20v-8v-8h20v-16h-17.5h-2.5v-2.5v-10.2V360h3.3h5.8h10.9v-11.8
	V344H185h-19.3v-3.3V328h12.7h7.3v-7.3V312h-20v-16h20v-16h-20v-16h20v-16h-20v-16h20v-16h-20v-16h20v-16h-20v-16h20v-16h-20v-16h20
	v-16h-20v-16h20V88h-20V72h48V292.7z M405.7,400h-176v-32h144V200.7l-144,144v-22.7l10.1-10.1l-10.1-10.1v-2.4l10.1-10.1l11.3,11.3
	l11.3-11.3l-11.3-11.3l11.3-11.3l11.3,11.3l11.3-11.3l-11.3-11.3L285,244l11.3,11.3l11.3-11.3l-11.3-11.3l11.3-11.3l11.3,11.3
	l11.3-11.3L319,210l11.3-11.3l11.3,11.3l11.3-11.3l-11.3-11.3l11.3-11.3l11.3,11.3l11.3-11.3l-11.3-11.3l11.3-11.3l11.3,11.3
	l11.3-11.3l-11.3-11.3l18.8-18.8V400z M245,352l112.7-112.7V352H245z"/>
</svg>
