<?xml version="1.0" encoding="utf-8"?>
<!-- Generator: Adobe Illustrator 22.0.0, SVG Export Plug-In . SVG Version: 6.00 Build 0)  -->
<svg version="1.1" id="Layer_1" xmlns="http://www.w3.org/2000/svg" xmlns:xlink="http://www.w3.org/1999/xlink" x="0px" y="0px"
	 viewBox="0 0 512 512" style="enable-background:new 0 0 512 512;" xml:space="preserve">
<path d="M128,56L96,88l0,368h58v18l16-10.5l16,10.5v-18h198l0-24.6c2.4-3.1,5.2-5.5,8-7.4h24V56H128z M112,94.7L134.6,72L336,72v336
	H132.7L112,428.7L112,94.7z M368,424.5c-2.8,4.3-5.1,9.5-6.6,15.5L186,440v-8h-32v8h-30.7l16-16H368h0.3
	C368.2,424.2,368.1,424.3,368,424.5z M400,401.9v6.1h-0.1l-14.4,0H384h-16V72h32V401.9z"/>
</svg>
